<svg width="70" height="70" viewBox="0 0 70 70" fill="none" xmlns="http://www.w3.org/2000/svg">
<g filter="url(#filter0_d_133_1925)">
<rect x="10" y="8" width="50" height="50" rx="25" fill="#FF6B00"/>
<g clip-path="url(#clip0_133_1925)">
<path fill-rule="evenodd" clip-rule="evenodd" d="M38.3441 35.9193C38.3357 35.9888 38.3222 36.0585 38.3033 36.128L38.3029 36.1278C38.2994 36.1406 38.2925 36.1627 38.2825 36.1939C38.2041 36.4373 38.0682 36.6488 37.8933 36.8199C38.4284 36.8885 39.0425 36.8185 39.8533 36.4401L42.957 34.7833C42.9441 34.7275 42.9205 34.6721 42.8855 34.6195C42.804 34.4968 42.6771 34.4214 42.532 34.3892C42.348 34.3483 42.1347 34.3729 41.9328 34.4554L41.9322 34.4539L38.3441 35.9193L38.3441 35.9193ZM28.4515 35.4297L31.4535 33.9184C31.5877 33.8508 31.7239 33.8108 31.8613 33.7977C32.0002 33.7844 32.1468 33.7988 32.2998 33.8404L36.9217 35.0948C36.9517 35.103 36.9565 35.1038 36.9607 35.1051C37.1494 35.1658 37.2965 35.2858 37.3832 35.4334C37.4642 35.5711 37.4916 35.7352 37.448 35.896V35.8977L37.441 35.9238C37.3846 36.0989 37.2502 36.2388 37.079 36.3242C36.9009 36.4131 36.6873 36.4423 36.4788 36.3932C36.466 36.3892 36.4532 36.3858 36.4403 36.383L34.0853 35.7647C33.8491 35.7026 33.6073 35.8437 33.5451 36.0798C33.483 36.316 33.6241 36.5578 33.8602 36.62L36.2095 37.2367C36.3229 37.2785 36.3645 37.2942 36.4065 37.31C37.4521 37.7032 38.4434 38.0761 40.237 37.2355L40.2577 37.2251L43.5779 35.4527C43.597 35.4442 43.6154 35.4343 43.6331 35.4233L44.3925 35.0179C44.5506 34.9335 44.7337 34.9166 44.9015 34.9573C45.0622 34.9963 45.2048 35.0882 45.2904 35.2234L45.3003 35.2387C45.3689 35.3555 45.3805 35.486 45.345 35.6063C45.3057 35.7395 45.2108 35.8634 45.0716 35.9516L45.0493 35.9656L38.2039 39.9884C38.0594 40.0733 37.9058 40.1255 37.7472 40.1443C37.588 40.1633 37.4232 40.1485 37.2569 40.0994L35.2899 39.5184C35.2391 39.5034 35.2131 39.4951 35.0946 39.4596C34.1436 39.1744 33.5532 38.9974 32.5922 39.5448L31.3622 40.2455L28.4515 35.4296V35.4297ZM28.3349 43.9369L23.8144 36.4573C23.6881 36.2479 23.7556 35.9758 23.965 35.8496L27.0585 33.9799C27.2679 33.8536 27.54 33.9211 27.6663 34.1305L27.9927 34.6706L31.0553 33.1288C31.2879 33.0117 31.5294 32.9418 31.7782 32.918C32.0287 32.8941 32.2804 32.9168 32.5318 32.985L37.1537 34.2395C37.1629 34.2419 37.1884 34.25 37.2308 34.2636C37.633 34.3931 37.9517 34.6576 38.1451 34.9866C38.1547 35.003 38.164 35.0195 38.173 35.0361L41.6003 33.6363V33.6346C41.9621 33.4868 42.3612 33.4467 42.7224 33.5269C43.0838 33.6071 43.4059 33.8045 43.623 34.1311C43.6724 34.2054 43.7136 34.2825 43.747 34.3615L43.9769 34.2388C44.3334 34.0485 44.7405 34.0089 45.1092 34.0985C45.4848 34.1898 45.8247 34.4151 46.0384 34.7525C46.0424 34.7589 46.0502 34.7719 46.0621 34.7921C46.2615 35.1314 46.2956 35.5087 46.1934 35.8557C46.0949 36.1898 45.8687 36.4931 45.5425 36.6996C45.5341 36.7049 45.5188 36.7141 45.4961 36.7275L38.6506 40.7503C38.3967 40.8995 38.1279 40.991 37.8512 41.024C37.5752 41.0569 37.2917 41.0317 37.0077 40.9478L34.8419 40.308C34.1129 40.0895 33.6603 39.9537 33.0286 40.3136L31.8196 41.0023L32.1869 41.6099C32.3131 41.8193 32.2457 42.0914 32.0363 42.2177L28.9427 44.0874C28.7333 44.2136 28.4612 44.1462 28.335 43.9368L28.3349 43.9369ZM24.8014 36.3786L28.864 43.1004L31.1997 41.6887L27.1372 34.967L24.8014 36.3786ZM39.0566 22.7381H37.9721L37.7269 23.503L37.7265 23.5028C37.6822 23.6402 37.5717 23.7531 37.4221 23.7938C37.2555 23.8393 37.0909 23.8959 36.9293 23.9629C36.7744 24.0271 36.6192 24.1037 36.4648 24.192L36.4645 24.1914C36.3388 24.2631 36.1805 24.2719 36.0423 24.2007L35.3282 23.8333L34.5618 24.5997L34.9177 25.2915C34.9956 25.424 35.0022 25.5934 34.9205 25.7363C34.8322 25.8908 34.7555 26.046 34.6913 26.201C34.6268 26.3566 34.5719 26.515 34.5274 26.6754C34.4938 26.8226 34.3857 26.9488 34.2314 26.9983L33.4665 27.2436V28.3281L34.2314 28.5733L34.2313 28.5737C34.3686 28.618 34.4816 28.7285 34.5223 28.8781C34.5678 29.0447 34.6243 29.2093 34.6913 29.3709C34.7555 29.5258 34.8321 29.681 34.9205 29.8355L34.9199 29.8358C34.9916 29.9615 35.0003 30.1198 34.9291 30.2579L34.5617 30.9721L35.3281 31.7385L36.02 31.3826C36.1525 31.3047 36.3218 31.298 36.4647 31.3798C36.6192 31.4681 36.7745 31.5448 36.9295 31.609C37.0851 31.6734 37.2435 31.7283 37.4039 31.7729C37.5511 31.8064 37.6774 31.9146 37.7269 32.0688L37.9721 32.8337H39.0566L39.3019 32.0688L39.3022 32.069C39.3465 31.9316 39.457 31.8187 39.6066 31.778C39.7732 31.7325 39.9378 31.6759 40.0994 31.609C40.2543 31.5448 40.4095 31.4681 40.564 31.3798L40.5643 31.3804C40.69 31.3086 40.8483 31.2999 40.9865 31.3711L41.7006 31.7385L42.467 30.9721L42.111 30.2802C42.0331 30.1478 42.0265 29.9785 42.1082 29.8355C42.1965 29.681 42.2732 29.5258 42.3374 29.3708C42.4019 29.2151 42.4568 29.0567 42.5014 28.8964C42.5349 28.7492 42.6431 28.6229 42.7973 28.5734L43.5622 28.3282V27.2437L42.7973 26.9984L42.7974 26.9981C42.6601 26.9538 42.5472 26.8433 42.5064 26.6937C42.461 26.5271 42.4043 26.3625 42.3374 26.2009C42.2732 26.046 42.1965 25.8908 42.1082 25.7363L42.1088 25.736C42.0371 25.6103 42.0283 25.452 42.0995 25.3138L42.4669 24.5997L41.7005 23.8333L41.0087 24.1893C40.8762 24.2672 40.7069 24.2738 40.5639 24.1921C40.4161 24.1076 40.2676 24.0337 40.1193 23.9713C40.112 23.9686 40.1046 23.9659 40.0974 23.9629C39.9397 23.8975 39.7819 23.8426 39.6247 23.7989C39.4775 23.7654 39.3513 23.6572 39.3018 23.5031L39.0566 22.7382L39.0566 22.7381ZM37.6502 21.8516V21.8529C37.4633 21.8528 37.2897 21.9723 37.2295 22.1598L36.9563 23.0119C36.8323 23.0521 36.7114 23.0968 36.5935 23.1457C36.4713 23.1963 36.3533 23.2504 36.2398 23.3078L35.4726 22.9131C35.3021 22.8095 35.0767 22.8313 34.9293 22.9787L33.7071 24.2008L33.7078 24.2015C33.5754 24.3338 33.5371 24.5414 33.6275 24.7168L34.0362 25.5113C33.9788 25.6249 33.9247 25.7429 33.8741 25.8651C33.8253 25.983 33.7806 26.1039 33.7403 26.2278L32.9227 26.4899C32.7264 26.5355 32.5801 26.7115 32.5801 26.9217V28.65H32.5814C32.5814 28.8369 32.7008 29.0106 32.8883 29.0708L33.7404 29.344C33.7806 29.4679 33.8253 29.5889 33.8742 29.7068C33.9248 29.829 33.9789 29.947 34.0363 30.0605L33.6416 30.8277C33.538 30.9982 33.5598 31.2236 33.7072 31.371L34.9293 32.5932L34.93 32.5925C35.0623 32.7249 35.27 32.7632 35.4453 32.6728L36.2398 32.264C36.3534 32.3215 36.4715 32.3756 36.5937 32.4263C36.7115 32.4751 36.8325 32.5198 36.9563 32.56L37.2185 33.3776C37.264 33.574 37.44 33.7203 37.6502 33.7203H39.3785V33.719C39.5654 33.719 39.7391 33.5996 39.7993 33.4121L40.0725 32.56C40.1964 32.5197 40.3174 32.475 40.4353 32.4262C40.5575 32.3756 40.6755 32.3214 40.789 32.264L41.5562 32.6587C41.7267 32.7624 41.9521 32.7405 42.0995 32.5932L43.3216 31.3711L43.321 31.3704C43.4533 31.2381 43.4916 31.0304 43.4013 30.8551L42.9925 30.0605C43.0499 29.947 43.1041 29.829 43.1547 29.7067C43.2035 29.5888 43.2482 29.4679 43.2884 29.344L44.106 29.0819C44.3024 29.0363 44.4487 28.8603 44.4487 28.6501V26.9218H44.4474C44.4474 26.7349 44.328 26.5613 44.1405 26.501L43.2884 26.2279C43.2481 26.1039 43.2035 25.9829 43.1546 25.865C43.104 25.7428 43.0498 25.6249 42.9925 25.5113L43.3872 24.7441C43.4908 24.5736 43.469 24.3482 43.3216 24.2008L42.0995 22.9787L42.0988 22.9794C41.9665 22.847 41.7589 22.8087 41.5835 22.8991L40.789 23.3078C40.683 23.2543 40.5732 23.2035 40.4596 23.1558C40.4521 23.1522 40.4446 23.1488 40.4368 23.1456C40.3196 23.097 40.198 23.0523 40.0724 23.0116L39.8104 22.1943C39.7648 21.9979 39.5888 21.8516 39.3786 21.8516H37.6503L37.6502 21.8516ZM39.7919 26.5084C40.1188 26.8353 40.321 27.287 40.321 27.7859C40.321 28.2848 40.1188 28.7365 39.7919 29.0634C39.465 29.3903 39.0133 29.5925 38.5144 29.5925C38.0154 29.5925 37.5637 29.3903 37.2368 29.0634C36.9099 28.7365 36.7077 28.2848 36.7077 27.7859C36.7077 27.287 36.9099 26.8353 37.2368 26.5084C37.5637 26.1815 38.0154 25.9792 38.5144 25.9792C39.0133 25.9792 39.465 26.1815 39.7919 26.5084ZM38.5144 25.0927C39.258 25.0927 39.9312 25.3942 40.4187 25.8816C40.906 26.369 41.2075 27.0423 41.2075 27.7859C41.2075 28.5295 40.9061 29.2028 40.4187 29.6902C39.9312 30.1776 39.258 30.479 38.5144 30.479C37.7707 30.479 37.0975 30.1776 36.6101 29.6902C36.1227 29.2028 35.8212 28.5295 35.8212 27.7859C35.8212 27.0423 36.1227 26.369 36.6101 25.8816C37.0975 25.3942 37.7707 25.0927 38.5144 25.0927Z" fill="white"/>
</g>
</g>
<defs>
<filter id="filter0_d_133_1925" x="0" y="0" width="70" height="70" filterUnits="userSpaceOnUse" color-interpolation-filters="sRGB">
<feFlood flood-opacity="0" result="BackgroundImageFix"/>
<feColorMatrix in="SourceAlpha" type="matrix" values="0 0 0 0 0 0 0 0 0 0 0 0 0 0 0 0 0 0 127 0" result="hardAlpha"/>
<feOffset dy="2"/>
<feGaussianBlur stdDeviation="5"/>
<feComposite in2="hardAlpha" operator="out"/>
<feColorMatrix type="matrix" values="0 0 0 0 0 0 0 0 0 0 0 0 0 0 0 0 0 0 0.2 0"/>
<feBlend mode="normal" in2="BackgroundImageFix" result="effect1_dropShadow_133_1925"/>
<feBlend mode="normal" in="SourceGraphic" in2="effect1_dropShadow_133_1925" result="shape"/>
</filter>
<clipPath id="clip0_133_1925">
<rect width="24" height="24" fill="white" transform="translate(23 21)"/>
</clipPath>
</defs>
</svg>
